<svg xmlns="http://www.w3.org/2000/svg" width="140" height="500" viewBox="0 0 140 500" fill="none" stroke="#1A1A1A" stroke-linecap="round" stroke-linejoin="round">
  <!-- Cross: vertical beam centered at x=70 -->
  <line x1="70" y1="10" x2="70" y2="490" stroke-width="2.5"/>
  <!-- Horizontal bar -->
  <line x1="30" y1="130" x2="110" y2="130" stroke-width="2.5"/>

  <!-- ===== ROSE at top ===== -->
  <path d="M70,60 C58,46 44,50 42,66 C40,80 56,90 70,80" stroke-width="2" fill="none"/>
  <path d="M70,60 C82,46 96,50 98,66 C100,80 84,90 70,80" stroke-width="2" fill="none"/>
  <path d="M70,56 C60,44 48,47 47,60 C46,72 58,80 70,74" stroke-width="1.8" fill="none"/>
  <path d="M70,56 C80,44 92,47 93,60 C94,72 82,80 70,74" stroke-width="1.8" fill="none"/>
  <path d="M70,58 C64,50 55,53 54,63 C53,72 62,76 70,71" stroke-width="1.5" fill="none"/>
  <path d="M70,58 C76,50 85,53 86,63 C87,72 78,76 70,71" stroke-width="1.5" fill="none"/>
  <path d="M67,64 C65,60 68,57 71,60 C74,63 71,66 68,65" stroke-width="1.2" fill="none"/>
  <circle cx="70" cy="63" r="3.5" fill="#1A1A1A" stroke="none"/>
  <!-- Sepals -->
  <path d="M58,82 C52,94 50,108 54,120" stroke-width="1.5" fill="none"/>
  <path d="M82,82 C88,94 90,108 86,120" stroke-width="1.5" fill="none"/>

  <!-- Bud at very top -->
  <path d="M70,28 C66,18 70,8 70,8 C70,8 74,18 70,28" stroke-width="1.5" fill="none"/>
  <path d="M68,22 C66,16 70,10 70,10" stroke-width="1" fill="none"/>
  <path d="M72,22 C74,16 70,10 70,10" stroke-width="1" fill="none"/>

  <!-- ===== SWEEPING VINE LEAVES — big curves reaching far LEFT ===== -->

  <!-- Large leaf LEFT at 34% — sweeps to x=5 -->
  <path d="M66,170 C40,155 10,162 5,185 C0,208 25,218 50,205" stroke-width="2.2" fill="none"/>
  <path d="M20,178 C28,190 38,198" stroke-width="0.9" fill="none"/>
  <path d="M12,186 C22,196 34,202" stroke-width="0.9" fill="none"/>
  <path d="M6,194 C18,200 30,206" stroke-width="0.7" fill="none"/>

  <!-- Large leaf LEFT at 46% — sweeps to x=2 -->
  <path d="M66,232 C36,216 6,226 2,252 C-2,278 28,286 52,270" stroke-width="2.2" fill="none"/>
  <path d="M18,242 C28,254 40,262" stroke-width="0.9" fill="none"/>
  <path d="M10,252 C22,262 36,268" stroke-width="0.9" fill="none"/>
  <path d="M4,260 C18,268 32,272" stroke-width="0.7" fill="none"/>

  <!-- Large leaf LEFT at 60% — sweeps to x=8 -->
  <path d="M66,300 C38,286 12,296 8,320 C4,344 30,350 54,336" stroke-width="2.2" fill="none"/>
  <path d="M22,310 C30,320 42,328" stroke-width="0.9" fill="none"/>
  <path d="M14,318 C26,328 38,334" stroke-width="0.9" fill="none"/>
  <path d="M8,326 C22,332 34,338" stroke-width="0.7" fill="none"/>

  <!-- Large leaf LEFT at 74% — sweeps to x=10 -->
  <path d="M66,370 C40,356 14,366 10,388 C6,410 32,416 54,402" stroke-width="2.2" fill="none"/>
  <path d="M24,378 C32,388 42,396" stroke-width="0.9" fill="none"/>
  <path d="M16,388 C28,396 38,400" stroke-width="0.9" fill="none"/>
  <path d="M10,396 C24,400 34,404" stroke-width="0.7" fill="none"/>

  <!-- Small right accents (subtle, reference has some right detail) -->
  <path d="M74,200 C90,192 100,200 96,214 C92,226 80,224 74,216" stroke-width="1.4" fill="none"/>
  <path d="M74,268 C92,260 102,270 98,284 C94,296 80,292 74,284" stroke-width="1.4" fill="none"/>
  <path d="M74,336 C90,328 100,336 96,350 C92,362 80,358 74,350" stroke-width="1.4" fill="none"/>
  <path d="M74,402 C88,396 96,402 94,414 C92,424 82,422 74,416" stroke-width="1.2" fill="none"/>

  <!-- Bottom vine taper -->
  <path d="M66,448 C48,440 36,448 38,462 C40,474 52,476 66,468" stroke-width="1.8" fill="none"/>
  <path d="M74,456 C84,450 90,456 88,466 C86,474 78,474 74,468" stroke-width="1.2" fill="none"/>
</svg>
