<?xml version="1.0" encoding="iso-8859-1"?>
<!-- Uploaded to: SVG Repo, www.svgrepo.com, Generator: SVG Repo Mixer Tools -->
<!DOCTYPE svg PUBLIC "-//W3C//DTD SVG 1.1//EN" "http://www.w3.org/Graphics/SVG/1.1/DTD/svg11.dtd">
<svg fill="#000000" version="1.1" id="Capa_1" xmlns="http://www.w3.org/2000/svg" xmlns:xlink="http://www.w3.org/1999/xlink" 
	 width="800px" height="800px" viewBox="0 0 431.995 431.995"
	 xml:space="preserve">
<g>
	<g>
		<path d="M205.596,355.575v76.42h18v-76.207c13.404,13.879,41.374,3.471,54.979-4.672c15.438-9.24,36.44-27.572,39.91-47.203
			c-20.785-1.707-43.104-6.054-63.654-0.224c-14.796,4.197-24.663,17.56-31.234,31.433v-94.313c0,0-5.682-7.188-7.599-18.961
			c-0.957,11.273-10.401,21.336-10.401,21.336v92.361c-6.571-14.023-16.486-27.615-31.432-31.855
			c-20.552-5.83-42.87-1.483-63.655,0.224c3.468,19.631,24.472,37.963,39.91,47.203
			C164.092,359.298,192.269,369.767,205.596,355.575z"/>
		<path d="M335.668,137.929c-3.261-5.639-10.042-9.76-20.729-12.6c-14.942-3.971-41.398-1.756-60.96,0.807l-10.989,1.441
			c0.813-3.885,0.764-7.77-0.03-11.447l11.005,1.396c19.581,2.48,46.051,4.592,60.966,0.555c10.677-2.881,17.438-7.035,20.669-12.68
			c2.479-4.33,2.829-9.594,1.072-16.086c-1.45-5.359-4.409-12.76-13.391-15.146c-5.203-1.383-11.712-0.982-19.887,1.229
			c-14.911,4.025-36.718,19.18-52.389,31.182l-8.809,6.746c-1.206-3.656-3.167-7.035-5.741-9.898l10.228-4.293
			c18.199-7.648,42.182-19.061,53.071-30.004c7.807-7.832,11.586-14.807,11.567-21.326c-0.021-4.979-2.35-9.709-7.12-14.463
			c-3.474-3.459-6.865-5.594-10.357-6.521c-7.639-2.031-15.954,1.605-25.413,11.109c-10.916,10.959-22.225,34.984-29.786,53.203
			l-4.245,10.244c-2.799-2.518-6.148-4.49-9.927-5.713l6.709-8.824c11.936-15.715,26.994-37.584,30.963-52.52
			c2.836-10.672,2.612-18.604-0.688-24.256c-3.312-5.672-8.881-7.77-13.358-8.959c-4.479-1.191-10.353-2.135-16.044,1.145
			c-5.671,3.27-9.807,10.043-12.642,20.717c-3.972,14.943-1.752,41.4,0.81,60.963l1.438,10.988
			c-3.879-0.813-7.768-0.764-11.439,0.031l1.392-11.004c2.48-19.582,4.589-46.053,0.556-60.965
			c-3.496-12.947-8.91-20.232-16.55-22.262c-3.492-0.928-7.489-0.758-12.227,0.518c-6.499,1.758-10.868,4.709-13.362,9.027
			c-3.25,5.646-3.43,13.576-0.547,24.25c4.029,14.912,19.18,36.723,31.183,52.389l6.749,8.807c-3.662,1.207-7.04,3.168-9.902,5.744
			l-4.299-10.23c-7.644-18.197-19.053-42.178-29.999-53.074c-5.998-5.977-11.446-9.555-16.653-10.939
			c-8.984-2.385-15.226,2.568-19.134,6.494c-4.753,4.773-7.064,9.516-7.062,14.502c0.006,6.51,3.817,13.471,11.65,21.271
			c10.942,10.904,34.969,22.215,53.199,29.781l10.242,4.25c-2.512,2.799-4.487,6.146-5.705,9.926l-8.825-6.707
			c-15.717-11.938-37.589-26.996-52.519-30.965c-10.672-2.836-18.605-2.611-24.258,0.689c-5.674,3.313-7.769,8.881-8.958,13.359
			c-1.732,6.516-1.36,11.775,1.133,16.084c3.263,5.639,10.042,9.76,20.728,12.6c14.943,3.971,41.399,1.756,60.962-0.807l10.99-1.441
			c-0.817,3.881-0.766,7.77,0.026,11.445l-11.001-1.396c-19.581-2.479-46.05-4.592-60.965-0.555
			c-10.672,2.883-17.436,7.033-20.672,12.682c-2.478,4.328-2.827,9.592-1.069,16.088c1.445,5.355,4.405,12.754,13.387,15.141
			c5.207,1.385,11.712,0.984,19.887-1.227c14.913-4.025,36.72-19.18,52.389-31.182l8.81-6.746c1.207,3.656,3.165,7.035,5.744,9.898
			l-10.228,4.293c-18.199,7.648-42.181,19.061-53.077,30.002c-7.802,7.836-11.583,14.807-11.563,21.326
			c0.019,4.98,2.347,9.711,7.119,14.469c3.477,3.457,6.863,5.59,10.355,6.518c7.641,2.031,15.956-1.605,25.417-11.107
			c10.918-10.961,22.223-34.984,29.785-53.205l4.25-10.242c2.796,2.516,6.146,4.488,9.92,5.711c0,0,0.025,0.008,0.063,0.02
			l-6.537,8.535c-11.996,15.676-27.144,37.492-31.168,52.402c-2.88,10.676-2.699,18.604,0.555,24.254
			c2.489,4.311,6.859,7.262,13.365,9.02c4.733,1.275,8.733,1.445,12.226,0.519c7.64-2.035,13.05-9.32,16.544-22.267
			c4.033-14.936,1.913-41.401-0.57-60.973l-1.381-10.863c1.362,0.193,3.158,0.355,5.386,0.355c2.209,0,4.011-0.166,5.389-0.365
			l-1.383,10.873c-2.484,19.57-4.604,46.037-0.57,60.973c3.494,12.945,8.904,20.23,16.543,22.267
			c3.492,0.928,7.492,0.758,12.227-0.519c6.506-1.758,10.875-4.709,13.365-9.02c3.254-5.65,3.434-13.578,0.555-24.254
			c-4.024-14.91-19.172-36.727-31.168-52.402l-6.544-8.545c0.11-0.033,0.171-0.053,0.171-0.053c3.656-1.207,7.036-3.172,9.899-5.744
			l4.298,10.229c7.644,18.197,19.053,42.176,30,53.074c5.999,5.979,11.449,9.555,16.652,10.938
			c8.98,2.387,15.223-2.564,19.134-6.492c4.755-4.77,7.062-9.514,7.063-14.5c-0.005-6.51-3.812-13.471-11.647-21.271
			c-10.944-10.908-34.97-22.215-53.2-29.781l-10.246-4.252c2.517-2.799,4.486-6.15,5.71-9.926l8.825,6.707
			c15.715,11.938,37.586,26.998,52.518,30.965l0.006,0.002c10.681,2.838,18.611,2.625,24.238-0.65
			c4.306-2.502,7.24-6.883,8.972-13.396C338.534,147.495,338.164,142.239,335.668,137.929z"/>
	</g>
</g>
</svg>